<mxfile host="app.diagrams.net" modified="2023-03-20T13:41:42.098Z" agent="5.0 (Windows NT 10.0; Win64; x64) AppleWebKit/537.36 (KHTML, like Gecko) Chrome/111.0.0.0 Safari/537.36" etag="4MkY-3ysN9L-_Rn80CkS" version="21.0.8" type="github">
  <diagram name="Página-1" id="LJQymG-zYXXeVHa35sLq">
    <mxGraphModel dx="1050" dy="573" grid="1" gridSize="10" guides="1" tooltips="1" connect="1" arrows="1" fold="1" page="1" pageScale="1" pageWidth="827" pageHeight="1169" math="0" shadow="0">
      <root>
        <mxCell id="0" />
        <mxCell id="1" parent="0" />
        <mxCell id="mn3Q965tW8HkQaaTKiWw-6" style="edgeStyle=orthogonalEdgeStyle;rounded=0;orthogonalLoop=1;jettySize=auto;html=1;" edge="1" parent="1" source="mn3Q965tW8HkQaaTKiWw-1" target="mn3Q965tW8HkQaaTKiWw-5">
          <mxGeometry relative="1" as="geometry" />
        </mxCell>
        <mxCell id="mn3Q965tW8HkQaaTKiWw-7" style="edgeStyle=orthogonalEdgeStyle;rounded=0;orthogonalLoop=1;jettySize=auto;html=1;" edge="1" parent="1" source="mn3Q965tW8HkQaaTKiWw-1" target="mn3Q965tW8HkQaaTKiWw-2">
          <mxGeometry relative="1" as="geometry">
            <Array as="points">
              <mxPoint x="400" y="180" />
              <mxPoint x="560" y="180" />
            </Array>
          </mxGeometry>
        </mxCell>
        <mxCell id="mn3Q965tW8HkQaaTKiWw-8" style="edgeStyle=orthogonalEdgeStyle;rounded=0;orthogonalLoop=1;jettySize=auto;html=1;entryX=0.5;entryY=0;entryDx=0;entryDy=0;" edge="1" parent="1" source="mn3Q965tW8HkQaaTKiWw-1" target="mn3Q965tW8HkQaaTKiWw-3">
          <mxGeometry relative="1" as="geometry">
            <Array as="points">
              <mxPoint x="400" y="180" />
              <mxPoint x="230" y="180" />
            </Array>
          </mxGeometry>
        </mxCell>
        <mxCell id="mn3Q965tW8HkQaaTKiWw-1" value="Modelo Fenomenológico" style="rounded=1;whiteSpace=wrap;html=1;" vertex="1" parent="1">
          <mxGeometry x="340" y="100" width="120" height="60" as="geometry" />
        </mxCell>
        <mxCell id="mn3Q965tW8HkQaaTKiWw-12" style="edgeStyle=orthogonalEdgeStyle;rounded=0;orthogonalLoop=1;jettySize=auto;html=1;entryX=1;entryY=0.5;entryDx=0;entryDy=0;" edge="1" parent="1" source="mn3Q965tW8HkQaaTKiWw-2" target="mn3Q965tW8HkQaaTKiWw-5">
          <mxGeometry relative="1" as="geometry" />
        </mxCell>
        <mxCell id="mn3Q965tW8HkQaaTKiWw-16" style="edgeStyle=orthogonalEdgeStyle;rounded=0;orthogonalLoop=1;jettySize=auto;html=1;" edge="1" parent="1" source="mn3Q965tW8HkQaaTKiWw-2" target="mn3Q965tW8HkQaaTKiWw-13">
          <mxGeometry relative="1" as="geometry">
            <Array as="points">
              <mxPoint x="560" y="310" />
              <mxPoint x="400" y="310" />
            </Array>
          </mxGeometry>
        </mxCell>
        <mxCell id="mn3Q965tW8HkQaaTKiWw-2" value="Modelo III - região permeado" style="rounded=1;whiteSpace=wrap;html=1;" vertex="1" parent="1">
          <mxGeometry x="500" y="220" width="120" height="60" as="geometry" />
        </mxCell>
        <mxCell id="mn3Q965tW8HkQaaTKiWw-9" style="edgeStyle=orthogonalEdgeStyle;rounded=0;orthogonalLoop=1;jettySize=auto;html=1;entryX=0;entryY=0.5;entryDx=0;entryDy=0;" edge="1" parent="1" source="mn3Q965tW8HkQaaTKiWw-3" target="mn3Q965tW8HkQaaTKiWw-5">
          <mxGeometry relative="1" as="geometry" />
        </mxCell>
        <mxCell id="mn3Q965tW8HkQaaTKiWw-14" style="edgeStyle=orthogonalEdgeStyle;rounded=0;orthogonalLoop=1;jettySize=auto;html=1;entryX=0.5;entryY=0;entryDx=0;entryDy=0;" edge="1" parent="1" source="mn3Q965tW8HkQaaTKiWw-3" target="mn3Q965tW8HkQaaTKiWw-13">
          <mxGeometry relative="1" as="geometry">
            <Array as="points">
              <mxPoint x="230" y="310" />
              <mxPoint x="400" y="310" />
            </Array>
          </mxGeometry>
        </mxCell>
        <mxCell id="mn3Q965tW8HkQaaTKiWw-3" value="Modelo I - região de alimentação" style="rounded=1;whiteSpace=wrap;html=1;" vertex="1" parent="1">
          <mxGeometry x="170" y="220" width="120" height="60" as="geometry" />
        </mxCell>
        <mxCell id="mn3Q965tW8HkQaaTKiWw-10" style="edgeStyle=orthogonalEdgeStyle;rounded=0;orthogonalLoop=1;jettySize=auto;html=1;entryX=1;entryY=0.5;entryDx=0;entryDy=0;" edge="1" parent="1" source="mn3Q965tW8HkQaaTKiWw-5" target="mn3Q965tW8HkQaaTKiWw-3">
          <mxGeometry relative="1" as="geometry" />
        </mxCell>
        <mxCell id="mn3Q965tW8HkQaaTKiWw-11" style="edgeStyle=orthogonalEdgeStyle;rounded=0;orthogonalLoop=1;jettySize=auto;html=1;entryX=0;entryY=0.5;entryDx=0;entryDy=0;" edge="1" parent="1" source="mn3Q965tW8HkQaaTKiWw-5" target="mn3Q965tW8HkQaaTKiWw-2">
          <mxGeometry relative="1" as="geometry" />
        </mxCell>
        <mxCell id="mn3Q965tW8HkQaaTKiWw-15" style="edgeStyle=orthogonalEdgeStyle;rounded=0;orthogonalLoop=1;jettySize=auto;html=1;entryX=0.5;entryY=0;entryDx=0;entryDy=0;" edge="1" parent="1" source="mn3Q965tW8HkQaaTKiWw-5" target="mn3Q965tW8HkQaaTKiWw-13">
          <mxGeometry relative="1" as="geometry">
            <mxPoint x="400" y="330" as="targetPoint" />
          </mxGeometry>
        </mxCell>
        <mxCell id="mn3Q965tW8HkQaaTKiWw-5" value="Modelo II - região transmembrana" style="rounded=1;whiteSpace=wrap;html=1;" vertex="1" parent="1">
          <mxGeometry x="340" y="220" width="120" height="60" as="geometry" />
        </mxCell>
        <mxCell id="mn3Q965tW8HkQaaTKiWw-13" value="&lt;font style=&quot;font-size: 9px;&quot;&gt;Parâmetros da membrana&lt;/font&gt;" style="ellipse;whiteSpace=wrap;html=1;aspect=fixed;dashed=1;" vertex="1" parent="1">
          <mxGeometry x="365" y="340" width="70" height="70" as="geometry" />
        </mxCell>
      </root>
    </mxGraphModel>
  </diagram>
</mxfile>
